<svg width="16" height="16" viewBox="0 0 16 16" fill="none" xmlns="http://www.w3.org/2000/svg">
<path d="M6.68316 3.5C6.76316 3.2 7.03316 3 7.34316 3H8.62316C8.93316 3 9.20316 3.2 9.28316 3.5L9.53316 4.48C9.88316 4.6 10.2132 4.79 10.5032 5.02L11.4732 4.74C11.7632 4.66 12.0832 4.78 12.2332 5.05L12.8732 6.16C13.0332 6.43 12.9832 6.76 12.7532 6.97L12.0232 7.66C12.0532 7.84 12.0632 8.02 12.0632 8.2C12.0632 8.38 12.0532 8.56 12.0232 8.74L12.7532 9.43C12.9832 9.64 13.0332 9.97 12.8732 10.24L12.2332 11.35C12.0832 11.62 11.7632 11.74 11.4732 11.66L10.5032 11.38C10.2132 11.61 9.88316 11.8 9.53316 11.92L9.28316 12.9C9.20316 13.2 8.93316 13.4 8.62316 13.4H7.34316C7.03316 13.4 6.76316 13.2 6.68316 12.9L6.43316 11.92C6.08316 11.8 5.75316 11.61 5.46316 11.38L4.49316 11.66C4.20316 11.74 3.88316 11.62 3.73316 11.35L3.09316 10.24C2.93316 9.97 2.98316 9.64 3.21316 9.43L3.94316 8.74C3.91316 8.56 3.90316 8.38 3.90316 8.2C3.90316 8.02 3.91316 7.84 3.94316 7.66L3.21316 6.97C2.98316 6.76 2.93316 6.43 3.09316 6.16L3.73316 5.05C3.88316 4.78 4.20316 4.66 4.49316 4.74L5.46316 5.02C5.75316 4.79 6.08316 4.6 6.43316 4.48L6.68316 3.5Z" stroke="#0B0B0F" stroke-linejoin="round"/>
<path d="M7.98314 9.9C8.92203 9.9 9.68314 9.13888 9.68314 8.2C9.68314 7.26112 8.92203 6.5 7.98314 6.5C7.04426 6.5 6.28314 7.26112 6.28314 8.2C6.28314 9.13888 7.04426 9.9 7.98314 9.9Z" stroke="#0B0B0F" stroke-linejoin="round"/>
</svg>
