<svg width="16" height="16" viewBox="0 0 16 16" fill="none" xmlns="http://www.w3.org/2000/svg">
<path d="M3.39999 7.2C3.55171 6.31607 3.95852 5.49577 4.57036 4.84003C5.1822 4.18428 5.97238 3.7217 6.8437 3.50918C7.71501 3.29667 8.62944 3.34349 9.47449 3.6439C10.3195 3.9443 11.0583 4.48519 11.6 5.2" stroke="#0B0B0F" stroke-linecap="round" stroke-linejoin="round"/>
<path d="M11.6 2.59998V5.19998H9" stroke="#0B0B0F" stroke-linecap="round" stroke-linejoin="round"/>
<path d="M12.6 8.79999C12.4483 9.68392 12.0415 10.5042 11.4296 11.16C10.8178 11.8157 10.0276 12.2783 9.15629 12.4908C8.28498 12.7033 7.37055 12.6565 6.5255 12.3561C5.68045 12.0557 4.94165 11.5148 4.39999 10.8" stroke="#0B0B0F" stroke-linecap="round" stroke-linejoin="round"/>
<path d="M4.39999 13.4V10.8H6.99999" stroke="#0B0B0F" stroke-linecap="round" stroke-linejoin="round"/>
</svg>
